<svg xmlns="http://www.w3.org/2000/svg" viewBox="0 0 1102 278"><path d="M82.32 28.64C71.54 15.85 62.25 2.85 60.35.15a.48.48 0 0 0-.7 0c-1.9 2.7-11.18 15.7-22 28.49-92.55 118.08 14.61 197.77 14.61 197.77l.9.6C54 239.3 56 257 56 257h8s2-17.6 2.79-30l.9-.7c.05.11 107.22-79.58 14.63-197.66ZM60 224.71s-4.79-4.1-6.09-6.2v-.2l5.74-128.58a.3.3 0 0 1 .6 0L66 218.31v.2c-1.25 2.1-6 6.2-6 6.2ZM260.5 197.59 215.85 89.3l-.1-.3H181v7.28h5.61a6.39 6.39 0 0 1 4.5 1.89 6.23 6.23 0 0 1 1.81 4.49l-1 109a6.38 6.38 0 0 1-6.21 6.28L180 218v7.18h33.84V218l-3.5-.1a6.38 6.38 0 0 1-6.21-6.28V108.94l48.66 116.27a4.41 4.41 0 0 0 8.21 0l47.56-113.67.7 100.11A6.41 6.41 0 0 1 303 218h-3.61v7.18H339V218h-5.41a6.46 6.46 0 0 1-6.3-6.28l-.31-109a6.4 6.4 0 0 1 6.21-6.38l5.81-.1V89h-33.84ZM571.87 216.14a6 6 0 0 1-1.71-4.39v-53.38c0-10.16-3-18.13-9-23.8S547 126 536.73 126c-14.35 0-25.69 5.78-33.63 17.13a.78.78 0 0 1-.7.3.47.47 0 0 1-.5-.5l-3.71-14.24H492l-16 9.06v5h4.12a6.73 6.73 0 0 1 4.61 1.5 5.81 5.81 0 0 1 1.71 4.58v62.84a6 6 0 0 1-1.71 4.39 6.09 6.09 0 0 1-4.41 1.69h-4V225H513v-7.27h-4a6.1 6.1 0 0 1-4.42-1.69 6 6 0 0 1-1.71-4.39V170a40 40 0 0 1 3.42-15.73 31.51 31.51 0 0 1 10.24-12.65 26.71 26.71 0 0 1 16.16-4.88c7 0 12.35 2.19 15.66 6.57s5 10.06 5 16.83v51.39a6 6 0 0 1-1.71 4.39 6.1 6.1 0 0 1-4.42 1.69h-4v7.27H580v-7.27h-4a5.09 5.09 0 0 1-4.13-1.47ZM907.55 97.21A71 71 0 0 0 873.79 89H826v7.31h4.68a6.79 6.79 0 0 1 5 2.3 7.12 7.12 0 0 1 2.29 5v107.77a7.12 7.12 0 0 1-2.29 5 7 7 0 0 1-5 2.3H826V226h47.79a71 71 0 0 0 33.76-8.21 61.63 61.63 0 0 0 24.39-23.64c6-10.21 9.06-22.53 9.06-36.55s-3.09-26.24-9.06-36.55a61.45 61.45 0 0 0-24.39-23.84Zm14.23 60.19c0 12.82-2.29 23.63-6.77 32.35s-10.45 15.25-17.82 19.43a48.38 48.38 0 0 1-24.29 6.31h-9.66a6.8 6.8 0 0 1-5-2.31 7.08 7.08 0 0 1-2.29-5V106.53a6.86 6.86 0 0 1 2.29-5 7 7 0 0 1 5-2.31h9.66a48.38 48.38 0 0 1 24.29 6.31c7.37 4.21 13.34 10.72 17.82 19.43s6.77 19.62 6.77 32.44ZM1054 164.71c-4.42-5.11-13-9.41-23-11.72 13.85-6.91 21-16.62 21-29.14a31.12 31.12 0 0 0-5.42-18.13 36 36 0 0 0-15.25-12.31A55.65 55.65 0 0 0 1008.5 89h-54.1v7.31h4.32a6.89 6.89 0 0 1 5 2.3 7.09 7.09 0 0 1 2.3 5v107.77a7.93 7.93 0 0 1-7.32 7.31H954V226h58.72a66.45 66.45 0 0 0 24.79-4.51 40.26 40.26 0 0 0 17.87-13.22c4.41-5.8 6.62-12.92 6.62-21.13-.1-8.81-2.71-16.32-8-22.43Zm-67.35 48.57a7.07 7.07 0 0 1-2.31-5V159.9h27.91q14.74 0 22.58 7.51t7.83 19.53a30.33 30.33 0 0 1-3.41 13.82 26.3 26.3 0 0 1-10.34 10.62c-4.52 2.7-10.14 4.11-16.66 4.11h-20.61a6.76 6.76 0 0 1-5.02-2.21Zm-2.21-63.69v-43a6.85 6.85 0 0 1 2.31-5 7.09 7.09 0 0 1 5-2.3H1005c9.53 0 16.56 2.4 21 7s6.62 10.72 6.62 18.13c0 7.61-2.11 13.72-6.22 18.33s-10.34 6.81-18.57 6.81ZM432 132.39a52.58 52.58 0 0 0-25.5-6.39 51.23 51.23 0 0 0-25.5 6.39 47.15 47.15 0 0 0-18.23 18A52.24 52.24 0 0 0 356 177a52.24 52.24 0 0 0 6.77 26.65 47.15 47.15 0 0 0 18.23 18 52.58 52.58 0 0 0 25.5 6.35 51.23 51.23 0 0 0 25.5-6.39 47.09 47.09 0 0 0 18.23-18A52.24 52.24 0 0 0 457 177a52.24 52.24 0 0 0-6.77-26.65A47.78 47.78 0 0 0 432 132.39Zm7.37 44.61c0 12.28-3 22.26-9 29.44s-14 10.88-23.91 10.88-18-3.69-23.9-10.88-9-17.16-9-29.44 3-22.26 9-29.44 13.94-10.88 23.9-10.88 18 3.69 23.91 10.88 9 17.16 9 29.44ZM785 132.39a52.58 52.58 0 0 0-25.5-6.39 51.23 51.23 0 0 0-25.5 6.39 47.15 47.15 0 0 0-18.23 18A52.24 52.24 0 0 0 709 177a52.24 52.24 0 0 0 6.77 26.65 47.15 47.15 0 0 0 18.23 18 52.58 52.58 0 0 0 25.5 6.35 51.23 51.23 0 0 0 25.5-6.39 47.09 47.09 0 0 0 18.23-18A52.24 52.24 0 0 0 810 177a52.24 52.24 0 0 0-6.77-26.65A48.49 48.49 0 0 0 785 132.39Zm7.37 44.61c0 12.28-3 22.26-9 29.44s-13.95 10.88-23.91 10.88-18-3.69-23.91-10.88-9-17.16-9-29.44 3-22.26 9-29.44 13.95-10.88 23.91-10.88 18 3.69 23.91 10.88 9 17.16 9 29.44ZM642.64 126a47.25 47.25 0 0 0-22 5.11 38.85 38.85 0 0 0-15.55 13.94 35.36 35.36 0 0 0-5.61 19.25 33.93 33.93 0 0 0 4.31 17 38.67 38.67 0 0 0 11.43 12.43l-14.34 19.45a7.85 7.85 0 0 0 6.32 12.53h4.11a30.1 30.1 0 0 0-9.43 9.73 25.65 25.65 0 0 0-3.88 13.48c0 8.63 3.81 15.75 11.34 21.06s17.85 8 31 8a74.76 74.76 0 0 0 25.78-4.41c8-2.91 14.55-7.22 19.36-12.83a29.87 29.87 0 0 0 7.43-20.26c0-8.22-3-14-10-19.65-6-4.71-15.45-7.22-27.19-7.22h-40.16a.39.39 0 0 1-.21-.1s-.1-.2 0-.3l10.44-14a36.41 36.41 0 0 0 7.72 2.61 40.38 40.38 0 0 0 8.13.7 49 49 0 0 0 22.67-5.11 40.1 40.1 0 0 0 15.75-13.94 34.61 34.61 0 0 0 5.71-19.25c0-7.42-3.61-21-13.44-27.87a.1.1 0 0 1 .1-.1l21.57 2.4v-9.92h-34.51a52.77 52.77 0 0 0-16.85-2.73Zm12 62.66a25.88 25.88 0 0 1-12 3.11 25 25 0 0 1-17.64-7.12c-5-4.71-7.52-11.63-7.52-20.45s2.52-15.74 7.52-20.45a25 25 0 0 1 17.66-7.12A24.86 24.86 0 0 1 664.11 149a29.87 29.87 0 0 1 3.71 15.24c0 6.12-1.21 11.23-3.71 15.24a23.76 23.76 0 0 1-9.43 9.18Zm-27.19 37h27.19c7.52 0 12.34 1.51 15.55 4.71a17.16 17.16 0 0 1 4.81 12.54 21.59 21.59 0 0 1-8.73 17.85c-5.81 4.51-13.64 6.81-23.27 6.81-8.43 0-15.45-1.9-20.56-5.51s-7.73-9.13-7.73-16.14a21.6 21.6 0 0 1 3.61-12.14 23 23 0 0 1 9.17-8.12ZM1082.35 224.33a12.26 12.26 0 0 1-6.35-10.83 12.51 12.51 0 0 1 1.69-6.3 11.49 11.49 0 0 1 4.66-4.53 14.08 14.08 0 0 1 13.3 0 12.26 12.26 0 0 1 6.35 10.83 12.51 12.51 0 0 1-1.69 6.3 11.49 11.49 0 0 1-4.66 4.53A13.64 13.64 0 0 1 1089 226a13.93 13.93 0 0 1-6.65-1.67Zm12.21-1.48a10.34 10.34 0 0 0 3.87-3.84 12 12 0 0 0 0-11.22 9.19 9.19 0 0 0-3.87-3.84 11.89 11.89 0 0 0-11.12 0 10.41 10.41 0 0 0-3.87 3.84 12 12 0 0 0 0 11.22 9.19 9.19 0 0 0 3.87 3.84 11.6 11.6 0 0 0 5.56 1.38 11.31 11.31 0 0 0 5.56-1.38Zm-10.92-3.44v-.89l.2-.1h.6a.76.76 0 0 0 .49-.2.53.53 0 0 0 .2-.49v-9.15a.72.72 0 0 0-.2-.49.54.54 0 0 0-.49-.2h-.6l-.2-.1v-.88l.2-.1h5.16a5.36 5.36 0 0 1 3.47 1 3.22 3.22 0 0 1 1.29 2.76 3 3 0 0 1-1 2.36 3.92 3.92 0 0 1-2.48 1.18l1.19.39 2.28 3.65a.76.76 0 0 0 .7.39h.59l.1.1v.88l-.1.1H1092l-.2-.1-3.18-5.31h-.79v3.54a.72.72 0 0 0 .2.49.54.54 0 0 0 .49.2h.6l.2.1v.89l-.2.09h-5.26Zm5.06-6.4a2.36 2.36 0 0 0 1.89-.69 2.7 2.7 0 0 0 .69-1.87 2.85 2.85 0 0 0-.59-1.87 2.08 2.08 0 0 0-1.69-.69h-.4a.74.74 0 0 0-.49.2.53.53 0 0 0-.2.49V213Z" style="fill:#00684a"/></svg>