<svg viewBox="0 0 841.9 595.3" xmlns="http://www.w3.org/2000/svg" xmlns:svg="http://www.w3.org/2000/svg" xml:space="preserve">
 <g class="layer">
  <g fill="#61DAFB" id="svg_1">
   <path d="m752.75,297.55c0,-43.96 -55.05,-85.62 -139.46,-111.46c19.48,-86.03 10.82,-154.47 -27.32,-176.38c-8.79,-5.14 -19.07,-7.57 -30.3,-7.57l0,30.16c6.22,0 11.23,1.22 15.42,3.52c18.4,10.55 26.38,50.72 20.15,102.39c-1.49,12.71 -3.92,26.11 -6.9,39.77c-26.51,-6.49 -55.46,-11.5 -85.89,-14.74c-18.26,-25.02 -37.2,-47.75 -56.27,-67.63c44.1,-40.98 85.49,-63.44 113.62,-63.44l0,-30.16c-37.2,0 -85.89,26.51 -135.13,72.5c-49.24,-45.72 -97.93,-71.96 -135.13,-71.96l0,30.16c28,0 69.53,22.32 113.62,63.03c-18.94,19.88 -37.87,42.47 -55.86,67.5c-30.57,3.25 -59.52,8.25 -86.03,14.88c-3.11,-13.53 -5.41,-26.65 -7.03,-39.23c-6.36,-51.67 1.49,-91.84 19.75,-102.53c4.06,-2.43 9.33,-3.52 15.56,-3.52l0,-30.16c-11.36,0 -21.64,2.43 -30.57,7.57c-38.01,21.91 -46.53,90.22 -26.92,175.98c-84.13,25.97 -138.92,67.5 -138.92,111.32c0,43.96 55.05,85.62 139.46,111.46c-19.48,86.03 -10.82,154.47 27.32,176.38c8.79,5.14 19.07,7.57 30.43,7.57c37.2,0 85.89,-26.51 135.13,-72.5c49.24,45.72 97.93,71.96 135.13,71.96c11.36,0 21.64,-2.43 30.57,-7.57c38.01,-21.91 46.53,-90.22 26.92,-175.98c83.86,-25.84 138.64,-67.5 138.64,-111.32zm-176.11,-90.22c-5,17.45 -11.23,35.44 -18.26,53.43c-5.55,-10.82 -11.36,-21.64 -17.72,-32.46c-6.22,-10.82 -12.85,-21.37 -19.48,-31.65c19.21,2.84 37.74,6.36 55.46,10.69zm-61.95,144.06c-10.55,18.26 -21.37,35.57 -32.6,51.67c-20.15,1.76 -40.58,2.71 -61.14,2.71c-20.42,0 -40.85,-0.95 -60.87,-2.57c-11.23,-16.1 -22.18,-33.27 -32.73,-51.4c-10.28,-17.72 -19.61,-35.71 -28.13,-53.83c8.39,-18.13 17.85,-36.25 28,-53.97c10.55,-18.26 21.37,-35.57 32.6,-51.67c20.15,-1.76 40.58,-2.71 61.14,-2.71c20.42,0 40.85,0.95 60.87,2.57c11.23,16.1 22.18,33.27 32.73,51.4c10.28,17.72 19.61,35.71 28.13,53.83c-8.52,18.13 -17.85,36.25 -28,53.97zm43.69,-17.58c7.3,18.13 13.53,36.25 18.67,53.83c-17.72,4.33 -36.39,7.98 -55.73,10.82c6.63,-10.42 13.26,-21.1 19.48,-32.06c6.22,-10.82 12.04,-21.78 17.58,-32.6zm-137.16,144.33c-12.58,-12.99 -25.16,-27.46 -37.6,-43.28c12.17,0.54 24.62,0.95 37.2,0.95c12.71,0 25.29,-0.27 37.6,-0.95c-12.17,15.83 -24.75,30.3 -37.2,43.28zm-100.64,-79.67c-19.21,-2.84 -37.74,-6.36 -55.46,-10.69c5,-17.45 11.23,-35.44 18.26,-53.43c5.55,10.82 11.36,21.64 17.72,32.46c6.36,10.82 12.85,21.37 19.48,31.65zm99.96,-281.48c12.58,12.99 25.16,27.46 37.6,43.28c-12.17,-0.54 -24.62,-0.95 -37.2,-0.95c-12.71,0 -25.29,0.27 -37.6,0.95c12.17,-15.83 24.75,-30.3 37.2,-43.28zm-100.09,79.67c-6.63,10.42 -13.26,21.1 -19.48,32.06c-6.22,10.82 -12.04,21.64 -17.58,32.46c-7.3,-18.13 -13.53,-36.25 -18.67,-53.83c17.72,-4.19 36.39,-7.85 55.73,-10.69zm-122.41,169.35c-47.88,-20.42 -78.86,-47.21 -78.86,-68.44c0,-21.24 30.98,-48.15 78.86,-68.44c11.63,-5 24.35,-9.47 37.47,-13.66c7.71,26.51 17.85,54.11 30.43,82.38c-12.44,28.13 -22.45,55.59 -30.03,81.97c-13.39,-4.19 -26.11,-8.79 -37.87,-13.8zm72.77,193.29c-18.4,-10.55 -26.38,-50.72 -20.15,-102.39c1.49,-12.71 3.92,-26.11 6.9,-39.77c26.51,6.49 55.46,11.5 85.89,14.74c18.26,25.02 37.2,47.75 56.27,67.63c-44.1,40.98 -85.49,63.44 -113.62,63.44c-6.09,-0.14 -11.23,-1.35 -15.28,-3.65zm320.84,-103.07c6.36,51.67 -1.49,91.84 -19.75,102.53c-4.06,2.43 -9.33,3.52 -15.56,3.52c-28,0 -69.53,-22.32 -113.62,-63.03c18.94,-19.88 37.87,-42.47 55.86,-67.5c30.57,-3.25 59.52,-8.25 86.03,-14.88c3.11,13.66 5.55,26.78 7.03,39.36zm52.08,-90.22c-11.63,5 -24.35,9.47 -37.47,13.66c-7.71,-26.51 -17.85,-54.11 -30.43,-82.38c12.44,-28.13 22.45,-55.59 30.03,-81.97c13.39,4.19 26.11,8.79 38.01,13.8c47.88,20.42 78.86,47.21 78.86,68.44c-0.14,21.24 -31.11,48.15 -78.99,68.44zm-358.31,-363.45z" id="svg_2"/>
   <circle cx="420.81" cy="297.55" id="svg_3" r="61.82"/>
   <path d="m555.54,2.14z" id="svg_4"/>
  </g>
 </g>
</svg>